<svg width="13" height="13" viewBox="0 0 13 13" fill="none" xmlns="http://www.w3.org/2000/svg">
<path d="M10.4147 0H11.0276C11.241 0 11.5874 0.0864118 11.8804 0.431366C12.1737 0.776551 13 1.61086 13 3.30768C13 5.00449 11.8537 6.644 11.694 6.87436C11.534 7.10448 9.48137 10.6977 6.23034 12.0801C3.52842 13.2289 2.97846 13.0003 2.3922 12.9428C1.80573 12.8855 0.499723 12.1087 0.233183 11.3035C-0.0333576 10.4983 -0.0333576 9.80797 0.0465193 9.66379C0.12661 9.52008 0.33997 9.4339 0.659691 9.26154C0.979625 9.08895 2.54726 8.24054 2.8405 8.12525C3.13373 8.01042 3.34688 7.95289 3.56024 8.2983C3.7736 8.64303 4.40172 9.4406 4.58839 9.67072C4.77484 9.90108 4.9615 9.92996 5.28143 9.75737C5.60137 9.58431 6.62097 9.21371 7.84283 8.03907C8.79387 7.12481 9.45382 5.95895 9.64048 5.61376C9.82693 5.26881 9.66034 5.08212 9.49995 4.90999C9.35621 4.75565 9.16207 4.54447 9.00211 4.34323C8.84235 4.14176 8.79686 3.99805 8.69008 3.76792C8.5835 3.5378 8.6369 3.33633 8.71677 3.16396C8.79686 2.99137 9.41067 1.28601 9.69515 0.603958H9.69494C9.93457 0.029574 10.1868 0.0101661 10.4147 0Z" fill="#F2A30F"/>
</svg>
